<svg xmlns="http://www.w3.org/2000/svg" width="512" height="512" baseProfile="tiny" version="1.2"><path fill="#3D3C37" fill-opacity=".502" d="M0 0h512v512H0z"/><path fill="#FFD5EF" fill-opacity=".502" d="M0 0l369 511L511 0z"/><path fill="#F898B3" fill-opacity=".502" d="M511 511H0L511 0z"/><path fill="#D57593" fill-opacity=".502" d="M0 511V0l511 511z"/><path fill="#D5717C" fill-opacity=".502" d="M511 0H0v511z"/><path fill="#865C68" fill-opacity=".502" d="M511 511V1L0 511z"/><path fill="#452054" fill-opacity=".502" d="M65 511l228-54L64 0z"/><path fill="#B46C74" fill-opacity=".502" d="M0 511L511 0H0z"/><path fill="#F1F0F0" fill-opacity=".502" d="M396 187L252 34l-53 128z"/><path fill="#FDC9B0" fill-opacity=".502" d="M511 61v368l-141-56z"/><path fill="#00001D" fill-opacity=".502" d="M285 452L511 53 475 0z"/><path fill="#77304A" fill-opacity=".502" d="M511 511V374l-71 64z"/><path fill="#05095D" fill-opacity=".502" d="M295 168L54 465l88-246z"/><path fill="#280035" fill-opacity=".502" d="M435 176l-92 43 5 218z"/><path fill="#FC9579" fill-opacity=".502" d="M178 222l-55-100-14 160z"/><path fill="#FFFFC6" fill-opacity=".502" d="M511 307l-72 182-13-72z"/><path fill="#400833" fill-opacity=".502" d="M32 299L0 80v431z"/><path fill="#FFFFCE" fill-opacity=".502" d="M408 0l30 74 20-19z"/><path fill="#20002B" fill-opacity=".502" d="M374 441l-65-70 61-59z"/><path fill="#FFFFFD" fill-opacity=".502" d="M408 175l13-77-86 55z"/><path fill="#FFC8B3" fill-opacity=".502" d="M339 381l45 130-178-52z"/><path fill="#2F042A" fill-opacity=".502" d="M209 298l-49 213 88-42z"/><path fill="#FED7D4" fill-opacity=".502" d="M352 151l-84 47 50 129z"/><path fill="#FFBB8A" fill-opacity=".502" d="M66 174L43 511 24 0z"/><path fill="#160033" fill-opacity=".502" d="M419 101l92-98-99 231z"/><path fill="#FFF7C8" fill-opacity=".502" d="M511 382l-66-11 66-113z"/><path fill="#6267B7" fill-opacity=".502" d="M114 410l82 46-89-195z"/><path fill="#FEC5C8" fill-opacity=".502" d="M370 328l-13-188 26 227z"/><path fill="#E3C4C6" fill-opacity=".502" d="M349 243l-41 17-39-209z"/><path fill="#A7D0E3" fill-opacity=".502" d="M0 397l24 114-2-97z"/><path fill="#6F2949" fill-opacity=".502" d="M338 224l-3-26 76-37z"/><path fill="#F97274" fill-opacity=".502" d="M223 269l128 19-99 223z"/><path fill="#2D0933" fill-opacity=".502" d="M0 344l25-9 9 158z"/><path fill="#DFD5D2" fill-opacity=".502" d="M244 222l50-21-115 137z"/><path fill="#0C0037" fill-opacity=".502" d="M343 317l6 89-42-19z"/><path fill="#ED8972" fill-opacity=".502" d="M317 0h185l-97 124z"/><path fill="#0B0B4F" fill-opacity=".502" d="M184 511H63l23-172z"/><path fill="#FFF2EC" fill-opacity=".502" d="M377 511l-97-147 79 60z"/><path fill="#00000F" fill-opacity=".502" d="M368 72l23 40-25 22z"/><path fill="#FFA989" fill-opacity=".502" d="M32 511L45 0l24 503z"/><path fill="#DBACAD" fill-opacity=".502" d="M209 306l-62 42-2 42z"/><path fill="#E96860" fill-opacity=".502" d="M366 511L228 409l-33 102z"/><path fill="#440735" fill-opacity=".502" d="M367 300l-8-70-47 41z"/><path fill="#C55458" fill-opacity=".502" d="M382 90L0 0h321z"/><path fill="#FEBEAC" fill-opacity=".502" d="M361 196l51-26-55 51z"/><path fill="#F4ECF1" fill-opacity=".502" d="M309 347l2-112 10 95z"/><path fill="#FFD9A0" fill-opacity=".502" d="M416 453l8 50 87-164z"/><path fill="#23003A" fill-opacity=".502" d="M511 0v80l-100 37z"/><path fill="#2D002A" fill-opacity=".502" d="M511 414l-44-3 44-32z"/><path fill="#302" fill-opacity=".502" d="M284 247l-21 31-23-13z"/><path fill="#FFF5B2" fill-opacity=".502" d="M141 244l-16-126-8 57z"/><path fill="#FFFFDB" fill-opacity=".502" d="M442 74l11-15-39-59z"/><path fill="#5A2648" fill-opacity=".502" d="M407 509l104-90v92z"/><path fill="#D2C0C5" fill-opacity=".502" d="M316 210L197 29l201 133z"/><path fill="#040941" fill-opacity=".502" d="M15 511H0V344z"/><path fill="#B64C55" fill-opacity=".502" d="M224 7L23 9l154 218z"/><path fill="#2C0528" fill-opacity=".502" d="M368 462l45 3 8 30z"/><path fill="#6965AD" fill-opacity=".502" d="M149 511l27-53-43-142z"/><path fill="#8E324A" fill-opacity=".502" d="M322 0l-29 70 53 73z"/><path fill="#AD767A" fill-opacity=".502" d="M361 463l94-338-4 294z"/><path fill="#190339" fill-opacity=".502" d="M253 199l-76 16-2 115z"/><path fill="#8B2338" fill-opacity=".502" d="M133 231L62 0l-1 319z"/><path fill="#000012" fill-opacity=".502" d="M371 412l-16 2 13 42z"/><path fill="#B27D81" fill-opacity=".502" d="M445 425l-80 42L497 63z"/><path fill="#270E37" fill-opacity=".502" d="M511 510v-52l-25 53z"/><path fill="#F9FAF9" fill-opacity=".502" d="M397 106l11 63 11-40z"/><path fill="#8E2D40" fill-opacity=".502" d="M23 429l8-383L0 95z"/><path fill="#0F002C" fill-opacity=".502" d="M184 421l47-149-73 106z"/><path fill="#B52D46" fill-opacity=".502" d="M305 301l-2-50-39-8z"/><path fill="#4A173B" fill-opacity=".502" d="M245 352l-23 132 19-32z"/><path fill="#C6D2D4" fill-opacity=".502" d="M16 434l15 77H15z"/><path fill="#FCDDF4" fill-opacity=".502" d="M285 280l-13-22-1 16z"/><path fill="#F0E0E1" fill-opacity=".502" d="M352 412l31 99h-57z"/><path fill="#3D2E77" fill-opacity=".502" d="M91 290l-7 115 93-163z"/><path fill="#5A2A4C" fill-opacity=".502" d="M365 428l-53-54 73-31z"/><path fill="#C4B3BA" fill-opacity=".502" d="M235 41l-72 19 138 20z"/><path fill="#FFA87E" fill-opacity=".502" d="M0 0v93L66 0z"/><path fill="#CBCEE1" fill-opacity=".502" d="M173 437l4-25 4 24z"/><path fill="#DF8E85" fill-opacity=".502" d="M161 316l12-27 9 20z"/><path fill="#422269" fill-opacity=".502" d="M264 222l-69-7 35-52z"/><path fill="#FFDCA5" fill-opacity=".502" d="M460 310l-22 174 63-214z"/><path fill="#ECABAE" fill-opacity=".502" d="M241 285l31 50 14-54z"/><path fill="#8380D1" fill-opacity=".502" d="M171 289l-9-32-8 38z"/><path fill="#00001B" fill-opacity=".502" d="M130 248l8-6 2 13z"/><path fill="#1A0032" fill-opacity=".502" d="M367 220l4 21 84-126z"/><path fill="#38173F" fill-opacity=".502" d="M256 384l-59-46-23 116z"/><path fill="#2D0A32" fill-opacity=".502" d="M179 508l-20-53 63 27z"/><path fill="#050027" fill-opacity=".502" d="M383 327l34-108-41 75z"/><path fill="#FFF7B8" fill-opacity=".502" d="M444 69L400 0h21z"/><path fill="#41143E" fill-opacity=".502" d="M4 306l23-29-3 73z"/><path fill="#FAB48F" fill-opacity=".502" d="M57 331l2 180H39z"/><path fill="#C7878E" fill-opacity=".502" d="M511 70l-85 120 85 118z"/><path fill="#24072E" fill-opacity=".502" d="M135 285l36 15-34 36z"/><path fill="#0C0035" fill-opacity=".502" d="M416 118l5 16 21-59z"/><path fill="#311041" fill-opacity=".502" d="M511 0v72L368 235z"/><path fill="#000048" fill-opacity=".502" d="M262 203l3-23 30-5z"/><path fill="#984359" fill-opacity=".502" d="M511 1l-57 56-33-57z"/><path fill="#7F404B" fill-opacity=".502" d="M383 511l-17-64 84 64z"/><path fill="#F1887A" fill-opacity=".502" d="M349 0l16 146-34-19z"/><path fill="#C27786" fill-opacity=".502" d="M168 221L185 0l76 157z"/><path fill="#B67B8C" fill-opacity=".502" d="M240 226l-37 55 148-159z"/><path fill="#CDA1A7" fill-opacity=".502" d="M314 141l-2 112-61-14z"/><path fill="#2A1242" fill-opacity=".502" d="M62 511l86-69-84 20z"/><path fill="#8A3A4A" fill-opacity=".502" d="M360 194l30-10 16-31z"/><path fill="#13003A" fill-opacity=".502" d="M347 227l1-27 18 63z"/><path fill="#C95A5A" fill-opacity=".502" d="M221 478l15-54-45 64z"/><path fill="#C26C91" fill-opacity=".502" d="M104 280l-19 37-9-38z"/><path fill="#BA5155" fill-opacity=".502" d="M33 294L32 72 0 231z"/><path fill="#C7464D" fill-opacity=".502" d="M214 343l51 56-35-126z"/><path fill="#F7B6CD" fill-opacity=".502" d="M341 272l-13 8 9-19z"/><path fill="#EB8870" fill-opacity=".502" d="M59 0l1 217L11 0z"/><path fill="#00002B" fill-opacity=".502" d="M158 339l19-31 14 2z"/><path fill="#9A6F75" fill-opacity=".502" d="M382 462l50-93-1 102z"/><path fill="#874156" fill-opacity=".502" d="M417 511l94-126-8 102z"/><path fill="#B39BAF" fill-opacity=".502" d="M26 425L0 393v23z"/><path fill="#200838" fill-opacity=".502" d="M32 413L3 348l-3 43z"/><path fill="#7D5263" fill-opacity=".502" d="M414 454l37-124-2 70z"/><path fill="#EDD5D4" fill-opacity=".502" d="M317 330l-13 17-12-12z"/><path fill="#C38190" fill-opacity=".502" d="M351 149l-190 12 115 17z"/><path fill="#1E002B" fill-opacity=".502" d="M322 260l-1 10 28-15z"/><path fill="#F4E2DC" fill-opacity=".502" d="M416 148l-16 35 13-71z"/><path fill="#BB8283" fill-opacity=".502" d="M424 202l-50 170 137-107z"/><path fill="#DDD4DA" fill-opacity=".502" d="M343 141l-146-15 94-54z"/><path fill="#AB7B86" fill-opacity=".502" d="M511 158l-70 156 70-47z"/><path fill="#6B2A47" fill-opacity=".502" d="M327 89l-58-35 66 64z"/><path fill="#F0D4BA" fill-opacity=".502" d="M511 381V275l-65 119z"/><path fill="#300023" fill-opacity=".502" d="M251 255l35 4-48 9z"/><path fill="#8A8CCC" fill-opacity=".502" d="M161 462l-12-18 15-30z"/><path fill="#C58983" fill-opacity=".502" d="M511 139L375 346l2 52z"/><path fill="#FFC5C1" fill-opacity=".502" d="M326 199l-18 61 41-16z"/><path fill="#D76F71" fill-opacity=".502" d="M288 293l40 218H221z"/><path fill="#735B8C" fill-opacity=".502" d="M363 225l-29-26 28-12z"/><path fill="#220540" fill-opacity=".502" d="M375 358l-1 46-20-195z"/><path fill="#C24F63" fill-opacity=".502" d="M315 272l27 46 6-39z"/><path fill="#220633" fill-opacity=".502" d="M417 485l4-16-30-1z"/><path fill="#00002D" fill-opacity=".502" d="M234 459l-8 16-23 18z"/><path fill="#876C87" fill-opacity=".502" d="M16 507L0 479l15-8z"/><path fill="#9B86BE" fill-opacity=".502" d="M107 414l-2 31-6-9z"/><path fill="#8076BF" fill-opacity=".502" d="M120 320l19-37-13-7z"/><path fill="#E6F0F7" fill-opacity=".502" d="M322 107l11 36-45-71z"/><path fill="#9899DB" fill-opacity=".502" d="M164 483l-24-28 5 19z"/><path fill="#7E75B5" fill-opacity=".502" d="M149 471l14 40 7-3z"/><path fill="#E1ADA2" fill-opacity=".502" d="M275 372l57 26 10 113z"/><path fill="#7D7DC5" fill-opacity=".502" d="M116 355l-9 9 56 40z"/><path fill="#2B0731" fill-opacity=".502" d="M26 464l-1-82 9 129z"/><path fill="#1E0038" fill-opacity=".502" d="M100 301l16-6 10-28z"/><path fill="#F5C6C2" fill-opacity=".502" d="M97 277l33-12-19 13z"/><path fill="#6F1538" fill-opacity=".502" d="M65 352l14-17-13-53z"/><path fill="#AE2939" fill-opacity=".502" d="M273 362l-9-14h36z"/><path fill="#CB6561" fill-opacity=".502" d="M404 511l13-27 24 27z"/><path fill="#54214E" fill-opacity=".502" d="M61 382l9-29 10 65z"/><path fill="#BF564D" fill-opacity=".502" d="M441 483l22-57 33-6z"/><path fill="#B8849E" fill-opacity=".502" d="M355 207l12 11 9 60z"/><path fill="#FFBE96" fill-opacity=".502" d="M503 4l8-4v5z"/><path fill="#7561A7" fill-opacity=".502" d="M231 233l-10-3v-31z"/><path fill="#0E002F" fill-opacity=".502" d="M505 381l6 6-39 25z"/><path fill="#DB7B74" fill-opacity=".502" d="M378 0l-48 125 23 22z"/><path fill="#230335" fill-opacity=".502" d="M170 432l-10-30 15 24z"/><path fill="#2B1344" fill-opacity=".502" d="M344 402l9-104-45 89z"/><path fill="#100034" fill-opacity=".502" d="M370 82l18 34-20 15z"/><path fill="#C0666B" fill-opacity=".502" d="M508 0h-50l8 46z"/><path fill="#532141" fill-opacity=".502" d="M463 459l-35 35 47 10z"/><path fill="#943B4B" fill-opacity=".502" d="M55 168l69 61L99 0z"/><path fill="#731A2D" fill-opacity=".502" d="M179 329l9-2-28 36z"/><path fill="#824356" fill-opacity=".502" d="M347 407l21-10-13-92z"/><path fill="#CEC0C4" fill-opacity=".502" d="M308 169L198 305l67-63z"/><path fill="#321652" fill-opacity=".502" d="M191 201l50-21-14 32z"/><path fill="#DFD6DA" fill-opacity=".502" d="M345 144l60 9 11-42z"/><path fill="#F1E5EE" fill-opacity=".502" d="M73 387l2-6-20 21z"/><path fill="#E68F81" fill-opacity=".502" d="M27 387l6-244 34 333z"/><path fill="#200C37" fill-opacity=".502" d="M167 469l60-52-52 94z"/><path fill="#E9B59E" fill-opacity=".502" d="M107 253l7 7-7 15z"/><path fill="#361444" fill-opacity=".502" d="M421 209l-4-100 94-70z"/><path fill="#BD4746" fill-opacity=".502" d="M171 511l55-32 18 32z"/><path fill="#7C4156" fill-opacity=".502" d="M379 390l66 24 3-22z"/><path fill="#342461" fill-opacity=".502" d="M160 470l-55-32 37-45z"/><path fill="#654070" fill-opacity=".502" d="M83 366l37 45-30-4z"/><path fill="#7E344D" fill-opacity=".502" d="M110 0L64 254 62 0z"/><path fill="#160430" fill-opacity=".502" d="M257 211l-28 24 8-25z"/><path fill="#E9BAC5" fill-opacity=".502" d="M373 293l-8-57 4 73z"/><path fill="#0E0029" fill-opacity=".502" d="M284 267l-15-11 16 2z"/><path fill="#55314B" fill-opacity=".502" d="M383 511l-12-51 28 51z"/><path fill="#AD5A8F" fill-opacity=".502" d="M71 371l14-7 4-61z"/><path fill="#330943" fill-opacity=".502" d="M161 234l7 14 9-29z"/><path fill="#090032" fill-opacity=".502" d="M165 330l27-25 7-21z"/><path fill="#83366A" fill-opacity=".502" d="M142 374l11-16v28z"/><path fill="#060029" fill-opacity=".502" d="M349 407l19 41v-13z"/><path fill="#E8DAD3" fill-opacity=".502" d="M17 511h13l-10-20z"/><path fill="#450A32" fill-opacity=".502" d="M334 130l-20-41 24 35z"/><path fill="#110038" fill-opacity=".502" d="M409 164l-4 26 23-70z"/><path fill="#FFF1B3" fill-opacity=".502" d="M132 125l-3-19-10 48z"/><path fill="#DDCED2" fill-opacity=".502" d="M399 104l-80 103 62-34z"/><path fill="#6C5AAA" fill-opacity=".502" d="M268 179l-27-12-5 30z"/><path fill="#9C4656" fill-opacity=".502" d="M0 83v224l31-64z"/><path fill="#2D143F" fill-opacity=".502" d="M68 415l40-83-39 179z"/><path fill="#B25465" fill-opacity=".502" d="M208 190L130 0l13 257z"/><path fill="#DC6A61" fill-opacity=".502" d="M52 166l11 234V220z"/><path fill="#C98A8E" fill-opacity=".502" d="M435 179l54-87 22 161z"/><path fill="#BD5F66" fill-opacity=".502" d="M148 0h187l-28 77z"/><path fill="#8688C7" fill-opacity=".502" d="M178 456l-11-6-1 17z"/><path fill="#88364C" fill-opacity=".502" d="M234 272l-19 32 1 60z"/><path fill="#BE4353" fill-opacity=".502" d="M313 327l-16-43-14 41z"/><path fill="#CE6B77" fill-opacity=".502" d="M259 248l16 10 29-43z"/><path fill="#8A6988" fill-opacity=".502" d="M466 511h16l29-65z"/><path fill="#8274B4" fill-opacity=".502" d="M150 352l-29-19v-28z"/><path fill="#361541" fill-opacity=".502" d="M506 7l-59 152 8-104z"/><path fill="#9498D6" fill-opacity=".502" d="M111 324l-8 11 16-31z"/><path fill="#461841" fill-opacity=".502" d="M353 190l-11 16-11-3z"/><path fill="#9389C2" fill-opacity=".502" d="M167 413l-2 17-27-30z"/><path fill="#FFDEAD" fill-opacity=".502" d="M142 217v-26l-12 32z"/><path fill="#DC6160" fill-opacity=".502" d="M382 108l32 3 35-44z"/><path fill="#E7E5EB" fill-opacity=".502" d="M173 336l-19 32 4-23z"/><path fill="#B7827D" fill-opacity=".502" d="M378 375l-10 81 74 9z"/><path fill="#E0767F" fill-opacity=".502" d="M311 267l-41 77 28-119z"/><path fill="#BC7575" fill-opacity=".502" d="M381 401l14-67-23 1z"/><path fill="#9298D6" fill-opacity=".502" d="M111 495l1-12-5 28z"/><path fill="#150433" fill-opacity=".502" d="M215 260l-38 68 29-77z"/><path fill="#5D4E92" fill-opacity=".502" d="M124 407l55 63-50-43z"/><path fill="#47183F" fill-opacity=".502" d="M365 375l-26-113 26-20z"/><path fill="#000026" fill-opacity=".502" d="M0 415v59l11-3z"/><path fill="#9C93A2" fill-opacity=".502" d="M21 410L1 398l29 105z"/><path fill="#290F34" fill-opacity=".502" d="M166 441l47 18-46-8z"/><path fill="#91759F" fill-opacity=".502" d="M94 354l-7 42v-25z"/><path fill="#390F3A" fill-opacity=".502" d="M511 383l-18 4-25 35z"/><path fill="#7A6DB1" fill-opacity=".502" d="M119 507l14 4-15-32z"/><path fill="#D67770" fill-opacity=".502" d="M387 107l59-37L329 0z"/><path fill="#FFDBD4" fill-opacity=".502" d="M306 269l4 13 12-28z"/><path fill="#995362" fill-opacity=".502" d="M149 318l24-1-16-11z"/><path fill="#FFD4BF" fill-opacity=".502" d="M172 307l1 3h-5z"/><path fill="#B19ECD" fill-opacity=".502" d="M163 441l40 7-33-9z"/><path fill="#4F489C" fill-opacity=".502" d="M272 202l-27-8 14 25z"/><path fill="#BC6651" fill-opacity=".502" d="M432 476l-16-33 21 13z"/><path fill="#9598D6" fill-opacity=".502" d="M164 279l4-27-2 1z"/><path fill="#9F374D" fill-opacity=".502" d="M371 118l-10 18 4-71z"/><path fill="#C13B43" fill-opacity=".502" d="M346 259l5-22-13-34z"/><path fill="#FCD1A5" fill-opacity=".502" d="M429 436l7 50 50-108z"/><path fill="#EEE6E0" fill-opacity=".502" d="M303 387l35 15 14 15z"/><path fill="#F1966E" fill-opacity=".502" d="M148 177l-24-41v46z"/><path fill="#CFB0AC" fill-opacity=".502" d="M182 340v-22l20-2z"/><path fill="#A2404B" fill-opacity=".502" d="M323 260l9-10 22 2z"/><path fill="#8989C6" fill-opacity=".502" d="M123 406l-8-56-3 38z"/><path fill="#542C56" fill-opacity=".502" d="M369 242l29-25-23 79z"/><path fill="#7F2E45" fill-opacity=".502" d="M22 186l4-134L0 94z"/><path fill="#C5795C" fill-opacity=".502" d="M434 471l-19-2 24-20z"/><path fill="#150A43" fill-opacity=".502" d="M274 176l17 3-21 18z"/><path fill="#FFA882" fill-opacity=".502" d="M145 325l4 11 1-7z"/><path fill="#CF9A9C" fill-opacity=".502" d="M312 177l-77-83-63 57z"/><path fill="#1B0B3B" fill-opacity=".502" d="M364 421l-26-33-16 1z"/><path fill="#C49799" fill-opacity=".502" d="M258 85l-33 21-13-59z"/><path fill="#993C4D" fill-opacity=".502" d="M152 184l-24-59 34-64z"/><path fill="#856FA6" fill-opacity=".502" d="M260 222v19l9-14z"/><path fill="#D76670" fill-opacity=".502" d="M223 342l15-47 59 114z"/><path fill="#B14F5C" fill-opacity=".502" d="M73 254l46 5-2-69z"/><path fill="#9E6D79" fill-opacity=".502" d="M470 302l-46 66 54-105z"/><path fill="#2C1760" fill-opacity=".502" d="M131 396l-16-18 5-14z"/><path fill="#350C3E" fill-opacity=".502" d="M381 349l-1-14 23-83z"/><path fill="#05002B" fill-opacity=".502" d="M266 188l-13 21 1-7z"/><path fill="#5A203D" fill-opacity=".502" d="M197 337l11 45 55 5z"/><path fill="#FFCE80" fill-opacity=".502" d="M440 481l16-28-35 36z"/><path fill="#D78783" fill-opacity=".502" d="M272 370l80 141h-38z"/><path fill="#945C72" fill-opacity=".502" d="M442 509l69-87-47 70z"/><path fill="#AAA6F2" fill-opacity=".502" d="M75 312l25-13-15 6z"/><path fill="#C68887" fill-opacity=".502" d="M376 179l18-29 18 9z"/><path fill="#442145" fill-opacity=".502" d="M475 476l11 4-24 31z"/><path fill="#211442" fill-opacity=".502" d="M141 365l20 23 25 17z"/><path fill="#2D1A53" fill-opacity=".502" d="M140 511l6-42 12 42z"/><path fill="#633874" fill-opacity=".502" d="M201 198l23 41-38-35z"/><path fill="#2A1443" fill-opacity=".502" d="M113 511l26-79-32-18z"/><path fill="#92435B" fill-opacity=".502" d="M209 107l19-5-59 48z"/><path fill="#361D67" fill-opacity=".502" d="M126 282l-39 62 19-16z"/><path fill="#C892B3" fill-opacity=".502" d="M246 182l4-7-25-11z"/><path fill="#D0C0D5" fill-opacity=".502" d="M62 411l15-18-12 21z"/><path fill="#300D3D" fill-opacity=".502" d="M359 274l-1-57-17-10z"/><path fill="#8F2C4C" fill-opacity=".502" d="M371 75l25 37-9 1z"/><path fill="#B6B6FF" fill-opacity=".502" d="M105 287l2 2-24 4z"/><path fill="#1A0535" fill-opacity=".502" d="M102 427l-12-12-17 50z"/><path fill="#924A60" fill-opacity=".502" d="M325 0l11 53-35-53z"/><path fill="#311642" fill-opacity=".502" d="M511 5v66l-73 84z"/><path fill="#381543" fill-opacity=".502" d="M384 303l63-147-79 54z"/><path fill="#995479" fill-opacity=".502" d="M60 457l7 37 6-31z"/><path fill="#1F0734" fill-opacity=".502" d="M167 248l23 39-17 3z"/><path fill="#BD6C8B" fill-opacity=".502" d="M301 288l-58-16 25-1z"/><path fill="#DB6953" fill-opacity=".502" d="M357 137l-24-20 12 28z"/><path fill="#B15E65" fill-opacity=".502" d="M221 252l36-40-65 89z"/><path fill="#E6C6C7" fill-opacity=".502" d="M335 474l36-11-47-31z"/><path fill="#FFE2AF" fill-opacity=".502" d="M154 371l25-25-22 29z"/><path fill="#99444C" fill-opacity=".502" d="M36 511l-1-72-9 56z"/><path fill="#15002F" fill-opacity=".502" d="M239 426l-5-37 1 58z"/><path fill="#E9A286" fill-opacity=".502" d="M38 437l1 74h21z"/><path fill="#2A1C4E" fill-opacity=".502" d="M157 465l13-1-46-17z"/><path fill="#E2D8DF" fill-opacity=".502" d="M287 71l-63 36 75-25z"/><path fill="#886EA6" fill-opacity=".502" d="M97 412l9-8 1-10z"/><path fill="#482965" fill-opacity=".502" d="M100 325l51 27-16 8z"/><path fill="#DEA5A9" fill-opacity=".502" d="M318 346l-30-2 36-28z"/><path fill="#8D3F52" fill-opacity=".502" d="M467 415l-5 60 49-67z"/><path fill="#5A2D6D" fill-opacity=".502" d="M239 187l-17-16 17 2z"/><path fill="#C85552" fill-opacity=".502" d="M55 81l6 149L63 2z"/><path fill="#EEBE86" fill-opacity=".502" d="M451 362l21-71 39-18z"/><path fill="#1E0A3A" fill-opacity=".502" d="M161 341l-18-62-14 20z"/><path fill="#B3C0ED" fill-opacity=".502" d="M173 436l-4 6 12-8z"/><path fill="#837EBD" fill-opacity=".502" d="M165 428l-10 31-10-9z"/></svg>