<svg xmlns="http://www.w3.org/2000/svg" width="512" height="512" baseProfile="tiny" version="1.2"><path fill="#3D3C37" fill-opacity=".502" d="M0 0h512v512H0z"/><path fill="#FFB4DA" fill-opacity=".502" d="M108 0L0 353l392-71z"/><path fill="#FFD5E4" fill-opacity=".502" d="M85 0l232 343L511 0z"/><path fill="#FF9AC0" fill-opacity=".502" d="M511 511L264 116 59 511z"/><path fill="#FFC5E3" fill-opacity=".502" d="M511 5L363 257l148 56z"/><path fill="#FF777B" fill-opacity=".502" d="M0 367V91l168 19z"/><path fill="#26165F" fill-opacity=".502" d="M85 346l125-164 7 244z"/><path fill="#FF9F9E" fill-opacity=".502" d="M0 0h159L2 176z"/><path fill="#FFC0D1" fill-opacity=".502" d="M0 511l28-102 81 102z"/><path fill="#FEC2CB" fill-opacity=".502" d="M206 82l152 171 73-169z"/><path fill="#FFDCD4" fill-opacity=".502" d="M511 511V194l-163 88z"/><path fill="#9C5F8B" fill-opacity=".502" d="M0 511l293-116L0 250z"/><path fill="#FFC591" fill-opacity=".502" d="M33 429l14 81 31-92z"/><path fill="#5A2147" fill-opacity=".502" d="M506 182L335 349l9-175z"/><path fill="#AE6378" fill-opacity=".502" d="M344 511l-12-238L0 401z"/><path fill="#9E485B" fill-opacity=".502" d="M279 185L0 474 75 0z"/><path fill="#FFFFE9" fill-opacity=".502" d="M511 338l-39 77-27-90z"/><path fill="#501" fill-opacity=".502" d="M373 123l-4 9-15-21z"/><path fill="#CA727A" fill-opacity=".502" d="M120 0h391v318z"/><path fill="#EFA499" fill-opacity=".502" d="M511 313L377 417l20-146z"/><path fill="#FFAB8D" fill-opacity=".502" d="M56 58L0 84l16-65z"/><path fill="#00001E" fill-opacity=".502" d="M511 2l-49 161-55-51z"/><path fill="#E1EBF1" fill-opacity=".502" d="M325 87l-18 83L203 38z"/><path fill="#EF8C83" fill-opacity=".502" d="M410 387L304 511H132z"/><path fill="#240E3B" fill-opacity=".502" d="M196 269l-54 228 119-52z"/><path fill="#E6B7B0" fill-opacity=".502" d="M280 511h167L313 373z"/><path fill="#C26162" fill-opacity=".502" d="M0 307V30l214 179z"/><path fill="#170018" fill-opacity=".502" d="M311 260l46 40 9-49z"/><path fill="#FFF4BC" fill-opacity=".502" d="M452 325l59-66v134z"/><path fill="#00003A" fill-opacity=".502" d="M72 408l-7 103 107-55z"/><path fill="#2F2C73" fill-opacity=".502" d="M61 324l53 187 133-93z"/><path fill="#BD8381" fill-opacity=".502" d="M511 511V312L317 464z"/><path fill="#FFC79B" fill-opacity=".502" d="M32 256l33-2-32-53z"/><path fill="#00001D" fill-opacity=".502" d="M288 175l-34 7 29 5z"/><path fill="#42071D" fill-opacity=".502" d="M260 280l-25-19 68-22z"/><path fill="#F3C1AB" fill-opacity=".502" d="M167 338l39-17 10-48z"/><path fill="#E0E9EB" fill-opacity=".502" d="M290 167l137-62-69 98z"/><path fill="#000026" fill-opacity=".502" d="M367 216l27 38L511 51z"/><path fill="#FFB699" fill-opacity=".502" d="M70 0H0l40 53z"/><path fill="#DBF3FF" fill-opacity=".502" d="M333 120l-11 20-24-15z"/><path fill="#B35764" fill-opacity=".502" d="M319 307L0 31 197 0z"/><path fill="#4D244E" fill-opacity=".502" d="M294 351l66 91 46-154z"/><path fill="#E68F7E" fill-opacity=".502" d="M328 0h135l-62 186z"/><path fill="#000457" fill-opacity=".502" d="M310 170l-97 85-17-58z"/><path fill="#441E4F" fill-opacity=".502" d="M335 193l39 132 50-87z"/><path fill="#FFF" fill-opacity=".502" d="M335 408l28 26 2 50z"/><path fill="#362560" fill-opacity=".502" d="M242 314L51 361l143-167z"/><path fill="#D29D9A" fill-opacity=".502" d="M499 88l12 208-91-100z"/><path fill="#000024" fill-opacity=".502" d="M492 91V12l24 27z"/><path fill="#CB575D" fill-opacity=".502" d="M160 0h207l-23 116z"/><path fill="#E68F82" fill-opacity=".502" d="M288 291l-70-23-30 43z"/><path fill="#530735" fill-opacity=".502" d="M451 432h60v79z"/><path fill="#FFFAD1" fill-opacity=".502" d="M511 379l-79 21 79-97z"/><path fill="#75213A" fill-opacity=".502" d="M117 142l-15 85-48-67z"/><path fill="#2D001F" fill-opacity=".502" d="M25 256L0 378l26-3z"/><path fill="#EFC0C6" fill-opacity=".502" d="M378 296l-13-35 6 32z"/><path fill="#02004A" fill-opacity=".502" d="M91 493l122-11-42 36z"/><path fill="#FD987E" fill-opacity=".502" d="M84 32L0 0v73z"/><path fill="#060030" fill-opacity=".502" d="M415 236v-17l-16 12z"/><path fill="#010032" fill-opacity=".502" d="M414 130l38 9-25 22z"/><path fill="#9C3E4F" fill-opacity=".502" d="M450 64L434 0l76 9z"/><path fill="#FFECB9" fill-opacity=".502" d="M428 47l35 1-28 24z"/><path fill="#FFFFBA" fill-opacity=".502" d="M479 406l-45 67 16-93z"/><path fill="#733246" fill-opacity=".502" d="M315 279l4-26 31-4z"/><path fill="#C96065" fill-opacity=".502" d="M98 61l149 73L162 0z"/><path fill="#FFB993" fill-opacity=".502" d="M35 432l54-97-59-34z"/><path fill="#000012" fill-opacity=".502" d="M361 134l10-57 22 40z"/><path fill="#FB7D78" fill-opacity=".502" d="M210 446l125-140-62 205z"/><path fill="#D5B8B8" fill-opacity=".502" d="M330 193L238 43l-49 107z"/><path fill="#351746" fill-opacity=".502" d="M139 474l-57-73-25 64z"/><path fill="#F87E81" fill-opacity=".502" d="M352 316l-112 89 16-111z"/><path fill="#6F3665" fill-opacity=".502" d="M270 175l36-14-18 19z"/><path fill="#1C003B" fill-opacity=".502" d="M398 209l20 24v-21z"/><path fill="#FA5351" fill-opacity=".502" d="M223 354l23-18-16-51z"/><path fill="#C1BFBE" fill-opacity=".502" d="M264 251l-3-48 31-18z"/><path fill="#87758A" fill-opacity=".502" d="M0 370v141h51z"/><path fill="#FFF1C1" fill-opacity=".502" d="M452 362l26-24-26 57z"/><path fill="#D77E7D" fill-opacity=".502" d="M432 511H224l32-130z"/><path fill="#A87A7F" fill-opacity=".502" d="M472 347l-106-27 21 156z"/><path fill="#27033D" fill-opacity=".502" d="M511 15l-8 70-39-53z"/><path fill="#FFBA8F" fill-opacity=".502" d="M62 132l-6 125-37-111z"/><path fill="#FFAF7E" fill-opacity=".502" d="M60 476l-28 6 10 35z"/><path fill="#FFCC8E" fill-opacity=".502" d="M433 413l29 54-45 18z"/><path fill="#21124C" fill-opacity=".502" d="M162 511l-70-77-21 77z"/><path fill="#090021" fill-opacity=".502" d="M0 430l16 81H0z"/><path fill="#DFEDF9" fill-opacity=".502" d="M418 149l-64 2 61-50z"/><path fill="#F5F7FA" fill-opacity=".502" d="M332 446l16 65 38-21z"/><path fill="#100035" fill-opacity=".502" d="M413 151l20 44 5-121z"/><path fill="#AF777C" fill-opacity=".502" d="M505 217l-74 195-41-130z"/><path fill="#2A0328" fill-opacity=".502" d="M189 400l-8-60 85 46z"/><path fill="#FFBA8E" fill-opacity=".502" d="M44 349l23-63-40-75z"/><path fill="#4E193C" fill-opacity=".502" d="M187 511l58-50-106-8z"/><path fill="#690C33" fill-opacity=".502" d="M509 435l-24-40-27 32z"/><path fill="#20114B" fill-opacity=".502" d="M102 396l-24 20-10-41z"/><path fill="#8E305D" fill-opacity=".502" d="M82 368l-32-40 50-11z"/><path fill="#993C4B" fill-opacity=".502" d="M144 34L37 65l61 97z"/><path fill="#69193B" fill-opacity=".502" d="M324 97l-28-28 43 18z"/><path fill="#250025" fill-opacity=".502" d="M428 475l-42 34-18-48z"/><path fill="#190939" fill-opacity=".502" d="M315 397l48-8-29-45z"/><path fill="#D9767B" fill-opacity=".502" d="M223 244l6 128 118-52z"/><path fill="#463065" fill-opacity=".502" d="M53 511l98-88 56 88z"/><path fill="#1D0137" fill-opacity=".502" d="M510 81l1-33-61 7z"/><path fill="#1C073C" fill-opacity=".502" d="M228 254l-59 38 25-91z"/><path fill="#2E0C3A" fill-opacity=".502" d="M324 349l44-58 9 76z"/><path fill="#E5C5D1" fill-opacity=".502" d="M310 359l-12-25 13-1z"/><path fill="#F4D2C1" fill-opacity=".502" d="M349 240l-24-57-37 65z"/><path fill="#FFC09A" fill-opacity=".502" d="M47 409l15 15-2-46z"/><path fill="#C0656C" fill-opacity=".502" d="M162 203L124 0h159z"/><path fill="#DDA37C" fill-opacity=".502" d="M403 445l54 19-29 29z"/><path fill="#6D5998" fill-opacity=".502" d="M136 509l-13-23-8 21z"/><path fill="#9C6BA4" fill-opacity=".502" d="M105 298l9-31-40 27z"/><path fill="#21062D" fill-opacity=".502" d="M156 377l24-27 35 97z"/><path fill="#CBB" fill-opacity=".502" d="M289 63l-58 41-21-64z"/><path fill="#6B0F34" fill-opacity=".502" d="M9 95l15-47 2 26z"/><path fill="#AA3748" fill-opacity=".502" d="M300 275l-14 25-4-44z"/><path fill="#E7C3C1" fill-opacity=".502" d="M157 373l-14-10 34-33z"/><path fill="#08002B" fill-opacity=".502" d="M388 109l-18 21-2-46z"/><path fill="#9C3C52" fill-opacity=".502" d="M277 60l68-2-52 18z"/><path fill="#8B88C9" fill-opacity=".502" d="M152 479l23-47h-20z"/><path fill="#7A4960" fill-opacity=".502" d="M450 372l-61 31 59 12z"/><path fill="#FFA994" fill-opacity=".502" d="M64 384l-33 45 35 26z"/><path fill="#752243" fill-opacity=".502" d="M0 105l29-53-9 337z"/><path fill="#9A4A59" fill-opacity=".502" d="M424 0l10 26 48 10z"/><path fill="#FAE1D9" fill-opacity=".502" d="M273 362l95 149-12-94z"/><path fill="#562242" fill-opacity=".502" d="M340 305l24 125 14-75z"/><path fill="#DA5C56" fill-opacity=".502" d="M235 433l-38 42 21 5z"/><path fill="#FFA37D" fill-opacity=".502" d="M20 70l20-10 1 30z"/><path fill="#50072F" fill-opacity=".502" d="M487 485l-21-42-20 39z"/><path fill="#FFFFBC" fill-opacity=".502" d="M139 230l-21-40 6-49z"/><path fill="#C26360" fill-opacity=".502" d="M0 105V0h169z"/><path fill="#5F2545" fill-opacity=".502" d="M405 511h106l-35-66z"/><path fill="#1A0032" fill-opacity=".502" d="M417 119l59-22-57 4z"/><path fill="#1E0C3E" fill-opacity=".502" d="M301 380l55-54-33 67z"/><path fill="#2B0011" fill-opacity=".502" d="M24 463l10-5-5-21z"/><path fill="#392A7B" fill-opacity=".502" d="M222 165l8 26 18-3z"/><path fill="#FFAA86" fill-opacity=".502" d="M60 144l-7-92-31 33z"/><path fill="#331541" fill-opacity=".502" d="M421 231l-23 46-29-38z"/><path fill="#7D304C" fill-opacity=".502" d="M28 59L0 95v143z"/><path fill="#FFCD8F" fill-opacity=".502" d="M129 205l12-2-9-35z"/><path fill="#FFE1CC" fill-opacity=".502" d="M182 326l8 8 20-43z"/><path fill="#D9868E" fill-opacity=".502" d="M313 374l-15 48-37-51z"/><path fill="#9490D7" fill-opacity=".502" d="M160 478l-9 14 7 6z"/><path fill="#ED866F" fill-opacity=".502" d="M23 80l41-12-5 17z"/><path fill="#623951" fill-opacity=".502" d="M378 509l46-28-24 41z"/><path fill="#782842" fill-opacity=".502" d="M119 137l-57 30-5-57z"/><path fill="#8B2E3E" fill-opacity=".502" d="M233 296l-24-15 18 83z"/><path fill="#FFF" fill-opacity=".502" d="M306 303l4-33 14 62z"/><path fill="#F6A47B" fill-opacity=".502" d="M128 134l17 45-33-26z"/><path fill="#3F3986" fill-opacity=".502" d="M118 441L83 298l94-63z"/><path fill="#C74646" fill-opacity=".502" d="M186 500l71-37-40 47z"/><path fill="#2A1243" fill-opacity=".502" d="M57 510l26-62 42 63z"/><path fill="#BD555E" fill-opacity=".502" d="M30 143l9 128-39-38z"/><path fill="#F39686" fill-opacity=".502" d="M11 365l53-27-4 83z"/><path fill="#D2B8B9" fill-opacity=".502" d="M284 119l15 134 78-114z"/><path fill="#E26C58" fill-opacity=".502" d="M354 122l-7 27 18-22z"/><path fill="#5F1F45" fill-opacity=".502" d="M511 473v-97l-39 27z"/><path fill="#A2858D" fill-opacity=".502" d="M429 399l-27-22 53-13z"/><path fill="#7B81CA" fill-opacity=".502" d="M111 357l34 53 34 3z"/><path fill="#E7F4FB" fill-opacity=".502" d="M316 100l-55-14 25-15z"/><path fill="#190020" fill-opacity=".502" d="M159 344l-11-59-18 13z"/><path fill="#D59592" fill-opacity=".502" d="M175 330l13-14 1 14z"/><path fill="#BF658B" fill-opacity=".502" d="M148 249l36-40-47 37z"/><path fill="#BDC3D4" fill-opacity=".502" d="M20 411l2 71-22-90z"/><path fill="#2D0033" fill-opacity=".502" d="M323 266l14-6 6-10z"/><path fill="#FFFFBC" fill-opacity=".502" d="M403 22l27-7-20-20z"/><path fill="#FFFFCF" fill-opacity=".502" d="M447 53l-29-17 3-33z"/><path fill="#4A50A9" fill-opacity=".502" d="M266 189l-5-17-25 8z"/><path fill="#1D0225" fill-opacity=".502" d="M174 296l20 15 7-46z"/><path fill="#F3A788" fill-opacity=".502" d="M53 291l-26 4 16-53z"/><path fill="#6D294A" fill-opacity=".502" d="M70 138l-9-34 37 15z"/><path fill="#DDAEB4" fill-opacity=".502" d="M327 353l-41-15 31-13z"/><path fill="#100027" fill-opacity=".502" d="M390 300l-11-47 22 29z"/><path fill="#6D2040" fill-opacity=".502" d="M109 238l-47 11-3-98z"/><path fill="#0E001C" fill-opacity=".502" d="M171 498l16-11-16 26z"/><path fill="#3D1249" fill-opacity=".502" d="M429 169l-16-65 83-10z"/><path fill="#13083C" fill-opacity=".502" d="M223 246l31-35-24-9z"/><path fill="#420A34" fill-opacity=".502" d="M0 306v84l27-39z"/><path fill="#5B1439" fill-opacity=".502" d="M353 263l-17-64 15-10z"/><path fill="#5D182E" fill-opacity=".502" d="M213 410l27 31v-39z"/><path fill="#3D062D" fill-opacity=".502" d="M27 316l-13 3 13 10z"/><path fill="#CF6766" fill-opacity=".502" d="M317 107l51-79-1 108z"/><path fill="#D1706C" fill-opacity=".502" d="M168 218l-15-54h-37z"/><path fill="#66112B" fill-opacity=".502" d="M379 180l-24 9 13 7z"/><path fill="#FFD9AB" fill-opacity=".502" d="M494 388l-55 63 21-127z"/><path fill="#E0948F" fill-opacity=".502" d="M368 216l10-23-30-2z"/><path fill="#1D003A" fill-opacity=".502" d="M419 219l-38-6 60-41z"/><path fill="#A36B84" fill-opacity=".502" d="M50 410l27-40-6 39z"/><path fill="#D65C71" fill-opacity=".502" d="M305 344l-61 24 75 4z"/><path fill="#000013" fill-opacity=".502" d="M168 325l11-12 1 15z"/><path fill="#B493A7" fill-opacity=".502" d="M213 44l-27 13 39 20z"/><path fill="#D19B94" fill-opacity=".502" d="M421 211l-33 110 116-150z"/><path fill="#00001F" fill-opacity=".502" d="M29 422l-8-4 9 27z"/><path fill="#280840" fill-opacity=".502" d="M511 73l-51-27-30 107z"/><path fill="#1E032B" fill-opacity=".502" d="M226 415l-69 72 29 14z"/><path fill="#885068" fill-opacity=".502" d="M487 511l16-48-44-25z"/><path fill="#000012" fill-opacity=".502" d="M374 439l-4-19-10 22z"/><path fill="#311D51" fill-opacity=".502" d="M90 483l66-59-78-49z"/><path fill="#716EB5" fill-opacity=".502" d="M153 469l16-53-39-28z"/><path fill="#24002D" fill-opacity=".502" d="M394 266l-19 32 11 47z"/><path fill="#FFA88A" fill-opacity=".502" d="M29 138l30 11-13-41z"/><path fill="#EAE4D7" fill-opacity=".502" d="M198 293l47-49-34 55z"/><path fill="#E8DBE1" fill-opacity=".502" d="M387 508l-20 6-28-37z"/><path fill="#250436" fill-opacity=".502" d="M10 408l22 2-24-54z"/><path fill="#200837" fill-opacity=".502" d="M188 301l-21-28 22 4z"/><path fill="#EC988C" fill-opacity=".502" d="M144 251l-45 9 22 14z"/><path fill="#2A0939" fill-opacity=".502" d="M321 370l49 75 4-41z"/><path fill="#E2B7AF" fill-opacity=".502" d="M327 449l5 62h38z"/><path fill="#371038" fill-opacity=".502" d="M379 493l4 18h9z"/><path fill="#AF494F" fill-opacity=".502" d="M121 0l-14 14 31 2z"/><path fill="#3B1B44" fill-opacity=".502" d="M303 388l23-38 32 42z"/><path fill="#811F37" fill-opacity=".502" d="M69 344l-11-60 23 6z"/><path fill="#D57D78" fill-opacity=".502" d="M67 480l1 21-20-10z"/><path fill="#792646" fill-opacity=".502" d="M63 61l1-61 52 42z"/><path fill="#DE8E7D" fill-opacity=".502" d="M0 492l65 19-2-98z"/><path fill="#D05D6D" fill-opacity=".502" d="M322 335l12-77 13 53z"/><path fill="#F2BBA9" fill-opacity=".502" d="M387 188l-41 22 36-9z"/><path fill="#FDB08D" fill-opacity=".502" d="M39 448l23-31H37z"/><path fill="#5D2E48" fill-opacity=".502" d="M143 350l15-11-16-26z"/><path fill="#BA8882" fill-opacity=".502" d="M368 437l13-29 62 45z"/><path fill="#7264B2" fill-opacity=".502" d="M132 348l8-12 13 33z"/><path fill="#8B6288" fill-opacity=".502" d="M352 202l27 35-18 15z"/><path fill="#82314A" fill-opacity=".502" d="M78 9l-5 62-16-39z"/><path fill="#F9E6E9" fill-opacity=".502" d="M359 484v-19l14-7z"/><path fill="#DAE3ED" fill-opacity=".502" d="M321 99l-37 16 45 19z"/><path fill="#7D709C" fill-opacity=".502" d="M166 412l23 17-41 5z"/><path fill="#E79197" fill-opacity=".502" d="M230 305l54-36-8 75z"/><path fill="#18001F" fill-opacity=".502" d="M257 263l10-12 3 11z"/><path fill="#D3BEB0" fill-opacity=".502" d="M244 222l17 31-37 18z"/><path fill="#700727" fill-opacity=".502" d="M233 287l-17 10 16-22z"/><path fill="#E7E7ED" fill-opacity=".502" d="M387 122l33 11-29-20z"/><path fill="#772E48" fill-opacity=".502" d="M243 429l-21 14 17 27z"/><path fill="#C86868" fill-opacity=".502" d="M447 65l13-65h50z"/><path fill="#37173A" fill-opacity=".502" d="M411 463l-31-6 35 23z"/><path fill="#BB414F" fill-opacity=".502" d="M303 311l-25 1 16 20z"/><path fill="#783950" fill-opacity=".502" d="M352 389l23-23-36 11z"/><path fill="#190032" fill-opacity=".502" d="M124 267l-11 26 19-26z"/><path fill="#A94251" fill-opacity=".502" d="M285 398l-73-74 36 106z"/><path fill="#8D283F" fill-opacity=".502" d="M101 279l5-46-25 30z"/><path fill="#130034" fill-opacity=".502" d="M440 78l1 13-25 26z"/><path fill="#C99288" fill-opacity=".502" d="M435 396l-62-17 13-48z"/><path fill="#756AAE" fill-opacity=".502" d="M138 462l23 49 6-38z"/><path fill="#31113E" fill-opacity=".502" d="M371 255l42-29-25 88z"/><path fill="#A9778C" fill-opacity=".502" d="M383 317l-14-6-9-24z"/><path fill="#FFE6B2" fill-opacity=".502" d="M149 199l-15 33-5-20z"/><path fill="#603958" fill-opacity=".502" d="M511 502l-53 20-30-38z"/><path fill="#F6AD92" fill-opacity=".502" d="M60 476l-49 32 50 3z"/><path fill="#F59C7F" fill-opacity=".502" d="M41 156l-18 58 41 16z"/><path fill="#D4CFDA" fill-opacity=".502" d="M298 144l58 6-33-32z"/><path fill="#EA7455" fill-opacity=".502" d="M336 140l17-18-3 20z"/><path fill="#E0BE98" fill-opacity=".502" d="M165 364l19-23-28 25z"/><path fill="#F2C99D" fill-opacity=".502" d="M461 315l21-37 29 64z"/><path fill="#000021" fill-opacity=".502" d="M9 456l-19 1 18-25z"/><path fill="#9B7180" fill-opacity=".502" d="M511 280v-64l-37 42z"/><path fill="#6F3553" fill-opacity=".502" d="M300 72l34 6-3 57z"/><path fill="#CCABBB" fill-opacity=".502" d="M65 389l-8 9 15-8z"/><path fill="#DABBC0" fill-opacity=".502" d="M302 94l-75 7-23 84z"/><path fill="#E0AC9D" fill-opacity=".502" d="M318 390l26 88-57-55z"/><path fill="#492457" fill-opacity=".502" d="M117 374l-36 62-23-92z"/><path fill="#060023" fill-opacity=".502" d="M206 488l20-8-10-2z"/><path fill="#080026" fill-opacity=".502" d="M363 243l-11 26-3-55z"/><path fill="#B55665" fill-opacity=".502" d="M301 0l2 65 85 28z"/><path fill="#FFE9B5" fill-opacity=".502" d="M424 14l1 41 28 3z"/><path fill="#371439" fill-opacity=".502" d="M180 386l1 121 62-130z"/><path fill="#C54252" fill-opacity=".502" d="M306 336l-17-67 17 36z"/><path fill="#E27064" fill-opacity=".502" d="M369 33l83 30-47 56z"/><path fill="#473C75" fill-opacity=".502" d="M168 466l-51 3 67-23z"/><path fill="#11003D" fill-opacity=".502" d="M13 492l-3-33-9-14z"/><path fill="#A2C0D1" fill-opacity=".502" d="M9 483l17 23 2-29z"/><path fill="#D29191" fill-opacity=".502" d="M505 169l-77 52 38-89z"/><path fill="#CDACAA" fill-opacity=".502" d="M246 235l39-40 23 58z"/><path fill="#460C2F" fill-opacity=".502" d="M9 317l25 4-8-19z"/><path fill="#8E565F" fill-opacity=".502" d="M415 447l32-81-2 50z"/><path fill="#C17388" fill-opacity=".502" d="M209 134l-83 101 136-70z"/><path fill="#7A76BB" fill-opacity=".502" d="M111 365l25-7-24 29z"/><path fill="#F29E80" fill-opacity=".502" d="M54 0L0 23l60 59z"/><path fill="#BE8382" fill-opacity=".502" d="M437 250l30 98-75-46z"/><path fill="#FFC970" fill-opacity=".502" d="M443 480l-13 5 17-12z"/><path fill="#2D174E" fill-opacity=".502" d="M87 355l26-25-8 41z"/><path fill="#7A6EA0" fill-opacity=".502" d="M175 430l-15 39 15-4z"/><path fill="#070017" fill-opacity=".502" d="M215 332l-1-30-17 20z"/><path fill="#421E4D" fill-opacity=".502" d="M0 453v58h17z"/><path fill="#002" fill-opacity=".502" d="M184 302l-2 17 14-26z"/><path fill="#351344" fill-opacity=".502" d="M17 366L0 382l21-3z"/><path fill="#A67579" fill-opacity=".502" d="M439 472l-79-16 61-47z"/><path fill="#F6C8BA" fill-opacity=".502" d="M338 209l-19 61-19-10z"/><path fill="#943B4F" fill-opacity=".502" d="M320 57l-24 17 5 10z"/><path fill="#9F414C" fill-opacity=".502" d="M60 31l45-31 50 40z"/><path fill="#986874" fill-opacity=".502" d="M453 336l-4 52-11-82z"/><path fill="#7B79C3" fill-opacity=".502" d="M127 335l-11-1 15-21z"/><path fill="#5A2C4E" fill-opacity=".502" d="M371 425l8-81-62 31z"/><path fill="#FFE1B6" fill-opacity=".502" d="M436 442l19-19-25 4z"/><path fill="#FFD8D5" fill-opacity=".502" d="M366 233l4 13-5 5z"/><path fill="#A55460" fill-opacity=".502" d="M479 433v-21l32 6z"/><path fill="#E49364" fill-opacity=".502" d="M440 425l11-8-16-2z"/><path fill="#DC8475" fill-opacity=".502" d="M400 116L410 0h-93z"/><path fill="#EA9983" fill-opacity=".502" d="M0 94V0h50z"/><path fill="#EDADA4" fill-opacity=".502" d="M308 277l31-34-48-10z"/><path fill="#000023" fill-opacity=".502" d="M141 247l-6-1 2 4z"/><path fill="#AC4C60" fill-opacity=".502" d="M98 260l-46 38 31 46z"/><path fill="#6F1843" fill-opacity=".502" d="M115 138l5 7-6 26z"/><path fill="#CC9D9C" fill-opacity=".502" d="M195 295l12 8-29 48z"/></svg>